<?xml version="1.0" encoding="UTF-8" standalone="no"?>
<svg
   xmlns:dc="http://purl.org/dc/elements/1.1/"
   xmlns:cc="http://creativecommons.org/ns#"
   xmlns:rdf="http://www.w3.org/1999/02/22-rdf-syntax-ns#"
   xmlns:svg="http://www.w3.org/2000/svg"
   xmlns="http://www.w3.org/2000/svg"
   xml:space="preserve"
   enable-background="new 293.552 387 23.393 19"
   viewBox="293.552 387 20.28224 19.775576"
   height="19.775576"
   width="20.28224"
   y="0px"
   x="0px"
   focusable="false"
   id="Capa_1"
   version="1.1"><metadata
   id="metadata9"><rdf:RDF><cc:Work
       rdf:about=""><dc:format>image/svg+xml</dc:format><dc:type
         rdf:resource="http://purl.org/dc/dcmitype/StillImage" /><dc:title></dc:title></cc:Work></rdf:RDF></metadata><defs
   id="defs7" />

<path
   id="path819"
   d="m 303.56231,387 c -5.67167,0 -10.01031,4.30589 -10.01031,9.97756 0,4.53489 2.85425,8.41556 6.93115,9.78134 0.5234,0.0941 0.70745,-0.22898 0.70745,-0.49477 0,-0.25354 -0.0123,-1.65203 -0.0123,-2.51077 0,0 -2.86238,0.61335 -3.4635,-1.2186 0,0 -0.46619,-1.18993 -1.13681,-1.49662 0,0 -0.93644,-0.642 0.0654,-0.62975 0,0 1.01828,0.0818 1.57849,1.05504 0.89553,1.57842 2.39618,1.12454 2.98094,0.85465 0.0941,-0.65426 0.35984,-1.1082 0.65427,-1.37809 -2.28585,-0.25353 -4.5921,-0.58477 -4.5921,-4.51854 0,-1.12453 0.31078,-1.68884 0.96504,-2.40855 -0.10633,-0.26578 -0.45391,-1.36162 0.10632,-2.77647 0.85464,-0.26579 2.82153,1.10409 2.82153,1.10409 0.81784,-0.229 1.69703,-0.34759 2.56802,-0.34759 0.871,0 1.75012,0.11859 2.56796,0.34759 0,0 1.96688,-1.37397 2.82152,-1.10409 0.56022,1.41895 0.2127,2.51069 0.10644,2.77647 0.65425,0.72381 1.05495,1.28813 1.05495,2.40855 0,3.94606 -2.40847,4.26092 -4.69432,4.51854 0.3762,0.32303 0.69516,0.93643 0.69516,1.89739 0,1.37806 -0.0124,3.08321 -0.0124,3.41853 0,0.26579 0.18813,0.58882 0.70744,0.49477 4.08918,-1.3576 6.86159,-5.23823 6.86159,-9.77312 0,-5.67167 -4.60028,-9.97756 -10.27196,-9.97756 z m -6.38541,13.73122 c -0.0416,9.7e-4 -0.074,0.0156 -0.0918,0.0411 -0.0286,0.0531 0.0124,0.1186 0.0941,0.15949 0.0655,0.0409 0.14717,0.0286 0.1758,-0.0286 0.0286,-0.0531 -0.0124,-0.11851 -0.0941,-0.1594 -0.0306,-0.01 -0.0591,-0.0132 -0.0839,-0.0126 z m 0.42323,0.3447 c -0.0276,-7.5e-4 -0.0534,0.009 -0.0734,0.0276 -0.0531,0.0409 -0.041,0.135 0.0286,0.2127 0.0655,0.0655 0.15944,0.0941 0.21261,0.0409 0.0531,-0.0409 0.0408,-0.135 -0.0286,-0.21268 -0.041,-0.0408 -0.0929,-0.0673 -0.13922,-0.0686 z m 0.42201,0.52791 c -0.009,-5.2e-4 -0.0155,-5.2e-4 -0.0231,2.4e-4 -0.02,0.002 -0.039,0.01 -0.0553,0.023 -0.0655,0.0408 -0.0655,0.14723 0,0.24129 0.0655,0.0941 0.17581,0.13489 0.22897,0.094 0.0655,-0.0531 0.0655,-0.15945 0,-0.25349 -0.0376,-0.0617 -0.0962,-0.10052 -0.15061,-0.10493 z m 0.49333,0.5836 c -0.009,-5.4e-4 -0.0147,-5.4e-4 -0.0218,7e-5 -0.0342,0.002 -0.0638,0.0159 -0.0838,0.0406 -0.0655,0.0531 -0.0409,0.17588 0.0531,0.25358 0.0941,0.0941 0.21263,0.10632 0.26581,0.0409 0.0531,-0.0531 0.0286,-0.17588 -0.0531,-0.25358 -0.0492,-0.0514 -0.10826,-0.0784 -0.1603,-0.0816 z m 0.72184,0.44884 c -0.0796,0.003 -0.15161,0.0416 -0.17307,0.10293 -0.0286,0.0818 0.0531,0.17584 0.17578,0.20038 0.10633,0.0409 0.22904,0 0.25357,-0.0818 0.0245,-0.0818 -0.0532,-0.1758 -0.17586,-0.21261 -0.0267,-0.009 -0.054,-0.0105 -0.0805,-0.01 z m 1.67822,0.0318 c -0.0143,-5.1e-4 -0.029,7e-5 -0.044,9.7e-4 -0.11859,0.0286 -0.20036,0.10632 -0.1881,0.20039 0.0123,0.0818 0.11861,0.13492 0.24127,0.10632 0.1186,-0.0286 0.20037,-0.10632 0.1881,-0.18809 -0.0105,-0.068 -0.0965,-0.11719 -0.19735,-0.1202 z m -0.76351,0.10689 c -0.0146,-7.4e-4 -0.0298,-5.2e-4 -0.045,7.5e-4 -0.11859,0 -0.21268,0.0654 -0.21268,0.1472 0,0.0941 0.0941,0.15946 0.22905,0.14719 0.11859,0 0.2126,-0.0654 0.2126,-0.14719 0,-0.0823 -0.0813,-0.14265 -0.18392,-0.14824 z"
   style="fill:#5b5881;fill-opacity:1;stroke-width:0.04089169" /></svg>