<?xml version="1.0" encoding="utf-8"?>
<!-- Generator: Adobe Illustrator 16.0.0, SVG Export Plug-In . SVG Version: 6.00 Build 0)  -->
<!DOCTYPE svg PUBLIC "-//W3C//DTD SVG 1.1//EN" "http://www.w3.org/Graphics/SVG/1.1/DTD/svg11.dtd">
<svg version="1.1" id="Capa_1" focusable="false" xmlns="http://www.w3.org/2000/svg" xmlns:xlink="http://www.w3.org/1999/xlink"
	 x="0px" y="0px" width="19.003px" height="19px" viewBox="296.567 386.363 19.003 19"
	 enable-background="new 296.567 386.363 19.003 19" xml:space="preserve">
<path fill="#5B5881" d="M306.07,390.992c-2.697,0-4.871,2.175-4.871,4.872c0,2.697,2.174,4.871,4.871,4.871
	c2.697,0,4.871-2.174,4.871-4.871C310.941,393.167,308.768,390.992,306.07,390.992z M306.07,399.03c-1.742,0-3.167-1.42-3.167-3.167
	c0-1.747,1.42-3.167,3.167-3.167c1.747,0,3.167,1.42,3.167,3.167C309.237,397.61,307.813,399.03,306.07,399.03L306.07,399.03z
	 M312.277,390.793c0,0.631-0.509,1.136-1.136,1.136c-0.632,0-1.137-0.508-1.137-1.136c0-0.628,0.508-1.137,1.137-1.137
	C311.769,389.656,312.277,390.165,312.277,390.793z M315.503,391.946c-0.071-1.522-0.419-2.87-1.534-3.981
	c-1.11-1.111-2.459-1.458-3.98-1.535c-1.569-0.089-6.271-0.089-7.84,0c-1.518,0.072-2.866,0.42-3.98,1.531
	c-1.115,1.11-1.458,2.459-1.535,3.981c-0.089,1.569-0.089,6.27,0,7.839c0.072,1.521,0.42,2.869,1.535,3.98
	c1.115,1.11,2.459,1.459,3.98,1.535c1.569,0.089,6.271,0.089,7.84,0c1.521-0.072,2.87-0.42,3.98-1.535
	c1.11-1.111,1.459-2.459,1.534-3.98C315.593,398.212,315.593,393.515,315.503,391.946z M313.478,401.464
	c-0.331,0.831-0.972,1.472-1.807,1.807c-1.251,0.495-4.219,0.381-5.601,0.381s-4.354,0.11-5.601-0.381
	c-0.831-0.331-1.471-0.972-1.806-1.807c-0.496-1.25-0.381-4.218-0.381-5.601c0-1.382-0.11-4.354,0.381-5.601
	c0.331-0.831,0.971-1.471,1.806-1.806c1.251-0.496,4.219-0.381,5.601-0.381s4.354-0.11,5.601,0.381
	c0.831,0.331,1.472,0.971,1.807,1.806c0.495,1.251,0.381,4.219,0.381,5.601C313.858,397.246,313.973,400.217,313.478,401.464z"/>
</svg>
