<?xml version="1.0" encoding="utf-8"?>
<!-- Generator: Adobe Illustrator 16.0.0, SVG Export Plug-In . SVG Version: 6.00 Build 0)  -->
<!DOCTYPE svg PUBLIC "-//W3C//DTD SVG 1.1//EN" "http://www.w3.org/Graphics/SVG/1.1/DTD/svg11.dtd">
<svg version="1.1" id="Capa_1" focusable="false" xmlns="http://www.w3.org/2000/svg" xmlns:xlink="http://www.w3.org/1999/xlink"
	 x="0px" y="0px" width="20.004px" height="20px" viewBox="295.998 386 20.004 20" enable-background="new 295.998 386 20.004 20"
	 xml:space="preserve">
<path fill="#5B5881" d="M300.479,406h-4.146v-13.353h4.146V406z M298.403,390.825c-1.326,0-2.401-1.098-2.401-2.424
	c0-1.327,1.075-2.401,2.401-2.401c1.326,0,2.401,1.075,2.401,2.401C300.805,389.727,299.729,390.825,298.403,390.825z M315.998,406
	h-4.138v-6.5c0-1.549-0.031-3.536-2.156-3.536c-2.155,0-2.486,1.683-2.486,3.425V406h-4.142v-13.353h3.977v1.821h0.059
	c0.553-1.049,1.905-2.156,3.923-2.156c4.196,0,4.968,2.763,4.968,6.352V406H315.998z"/>
</svg>
