<?xml version="1.0" encoding="utf-8"?>
<!-- Generator: Adobe Illustrator 16.0.0, SVG Export Plug-In . SVG Version: 6.00 Build 0)  -->
<!DOCTYPE svg PUBLIC "-//W3C//DTD SVG 1.1//EN" "http://www.w3.org/Graphics/SVG/1.1/DTD/svg11.dtd">
<svg version="1.1" id="Capa_1" focusable="false" xmlns="http://www.w3.org/2000/svg" xmlns:xlink="http://www.w3.org/1999/xlink"
	 x="0px" y="0px" width="23.393px" height="19px" viewBox="293.552 387 23.393 19" enable-background="new 293.552 387 23.393 19"
	 xml:space="preserve">
<path fill="#5B5881" d="M314.541,391.734c0.015,0.208,0.015,0.416,0.015,0.624c0,6.338-4.823,13.642-13.641,13.642
	c-2.716,0-5.24-0.788-7.362-2.153c0.386,0.045,0.757,0.06,1.158,0.06c2.241,0,4.305-0.757,5.952-2.049
	c-2.107-0.045-3.874-1.425-4.482-3.324c0.297,0.044,0.594,0.074,0.905,0.074c0.431,0,0.861-0.06,1.262-0.163
	c-2.197-0.445-3.844-2.376-3.844-4.706v-0.059c0.638,0.356,1.38,0.579,2.167,0.608c-1.292-0.861-2.138-2.331-2.138-3.993
	c0-0.89,0.238-1.707,0.654-2.418c2.36,2.909,5.907,4.808,9.885,5.016c-0.074-0.356-0.119-0.727-0.119-1.098
	c0-2.643,2.138-4.794,4.795-4.794c1.38,0,2.627,0.579,3.503,1.514c1.084-0.208,2.122-0.609,3.043-1.158
	c-0.357,1.113-1.113,2.048-2.108,2.642c0.965-0.103,1.9-0.37,2.761-0.741C316.293,390.205,315.477,391.051,314.541,391.734
	L314.541,391.734z"/>
</svg>
