<?xml version="1.0" encoding="utf-8"?>
<!-- Generator: Adobe Illustrator 22.0.0, SVG Export Plug-In . SVG Version: 6.00 Build 0)  -->
<svg version="1.1" id="Capa_1" xmlns="http://www.w3.org/2000/svg" xmlns:xlink="http://www.w3.org/1999/xlink" x="0px" y="0px"
	 viewBox="0 0 35.4 22.9" style="enable-background:new 0 0 35.4 22.9;" xml:space="preserve">
<style type="text/css">
	.st0{fill:#FFFFFF;}
</style>
<g>
	<path class="st0" d="M4.7,17.6H3.9V13h0.8V17.6z"/>
	<path class="st0" d="M6.5,17.6H5.7V13h0.8V17.6z M10.4,17.6H9.3l-1.8-1.9H6.8v-0.8h0.6L9.3,13h1.2l-2.3,2.3L10.4,17.6z"/>
	<path class="st0" d="M15.4,17.6h-0.8v-1.1h-2.9v1.1h-0.8v-2.3c0-0.3,0.1-0.6,0.2-0.9s0.3-0.5,0.5-0.7c0.2-0.2,0.4-0.4,0.7-0.5
		c0.3-0.1,0.6-0.2,0.9-0.2H15c0.1,0,0.1,0,0.2,0c0.1,0,0.1,0.1,0.1,0.1c0,0,0.1,0.1,0.1,0.1c0,0.1,0,0.1,0,0.2V17.6z M11.7,15.6h2.9
		v-1.8h-1.4c0,0-0.1,0-0.2,0c-0.1,0-0.2,0-0.3,0.1c-0.1,0-0.2,0.1-0.3,0.1c-0.1,0.1-0.2,0.1-0.3,0.3c-0.1,0.1-0.2,0.2-0.2,0.4
		c-0.1,0.2-0.1,0.4-0.1,0.6V15.6z"/>
	<path class="st0" d="M20.9,14.6c0,0.2,0,0.4-0.1,0.5c0,0.1-0.1,0.3-0.2,0.4c-0.1,0.1-0.2,0.2-0.3,0.3c-0.1,0.1-0.2,0.1-0.3,0.2
		C19.9,16,19.8,16,19.7,16c-0.1,0-0.2,0-0.3,0l1.7,1.5h-1.3l-1.7-1.5h-0.6v-0.8h1.9c0.1,0,0.2,0,0.3-0.1c0.1,0,0.2-0.1,0.2-0.1
		c0.1-0.1,0.1-0.1,0.1-0.2c0-0.1,0.1-0.2,0.1-0.3V14c0,0,0-0.1,0-0.1c0,0,0,0,0-0.1c0,0,0,0-0.1,0c0,0,0,0-0.1,0h-2.7v3.7h-0.8v-4.1
		c0-0.1,0-0.1,0-0.2c0-0.1,0.1-0.1,0.1-0.1c0,0,0.1-0.1,0.1-0.1c0.1,0,0.1,0,0.2,0h3.1c0.2,0,0.3,0,0.5,0.1c0.1,0.1,0.2,0.1,0.3,0.2
		c0.1,0.1,0.1,0.2,0.2,0.3c0,0.1,0.1,0.2,0.1,0.3V14.6z"/>
	<path class="st0" d="M26.1,17.2c0,0.1,0,0.1,0,0.2c0,0.1-0.1,0.1-0.1,0.1c0,0-0.1,0.1-0.1,0.1c-0.1,0-0.1,0-0.2,0h-1.9
		c-0.2,0-0.4,0-0.5-0.1c-0.2,0-0.4-0.1-0.5-0.2c-0.2-0.1-0.3-0.2-0.5-0.3c-0.1-0.1-0.3-0.3-0.4-0.4c-0.1-0.2-0.2-0.4-0.3-0.6
		c-0.1-0.2-0.1-0.5-0.1-0.7V13h0.8v2.3c0,0.2,0,0.4,0.1,0.6c0.1,0.2,0.1,0.3,0.2,0.4c0.1,0.1,0.2,0.2,0.3,0.3
		c0.1,0.1,0.2,0.1,0.3,0.1c0.1,0,0.2,0,0.3,0.1c0.1,0,0.1,0,0.2,0h1.4V13h0.8V17.2z"/>
	<path class="st0" d="M31.5,16.2c0,0.2,0,0.3-0.1,0.4c0,0.1-0.1,0.2-0.2,0.3c-0.1,0.1-0.1,0.2-0.2,0.3c-0.1,0.1-0.2,0.1-0.3,0.2
		c-0.1,0-0.2,0.1-0.3,0.1c-0.1,0-0.2,0-0.3,0H27v-0.8h3.2c0.2,0,0.3,0,0.4-0.1c0.1-0.1,0.1-0.2,0.1-0.4c0-0.1,0-0.1,0-0.2
		c0-0.1-0.1-0.1-0.1-0.2c0,0-0.1-0.1-0.2-0.1c-0.1,0-0.1,0-0.2,0h-1.9c-0.1,0-0.3,0-0.4-0.1c-0.2,0-0.3-0.1-0.4-0.2
		c-0.1-0.1-0.2-0.2-0.3-0.4c-0.1-0.2-0.1-0.4-0.1-0.6s0-0.5,0.1-0.6c0.1-0.2,0.2-0.3,0.3-0.4c0.1-0.1,0.3-0.2,0.4-0.2
		c0.2,0,0.3-0.1,0.4-0.1H31v0.8h-2.8c-0.2,0-0.3,0-0.4,0.1c-0.1,0.1-0.1,0.2-0.1,0.4c0,0.2,0,0.3,0.1,0.4c0.1,0.1,0.2,0.1,0.4,0.1
		h1.9h0c0.1,0,0.2,0,0.3,0c0.1,0,0.2,0.1,0.3,0.1c0.1,0,0.2,0.1,0.3,0.2c0.1,0.1,0.2,0.2,0.2,0.3c0.1,0.1,0.1,0.2,0.2,0.3
		C31.4,15.9,31.5,16.1,31.5,16.2z"/>
</g>
<g>
	<path class="st0" d="M4.7,18.9c0,0.1,0,0.2-0.1,0.3c0,0.1-0.1,0.1-0.2,0.2c0,0-0.1,0.1-0.2,0.1c-0.1,0-0.1,0-0.2,0H3.8v-1.1h0.3
		c0.1,0,0.2,0,0.2,0c0.1,0,0.1,0,0.2,0.1c0.1,0,0.1,0.1,0.2,0.2C4.7,18.7,4.7,18.8,4.7,18.9z M4.6,18.9c0-0.1,0-0.2,0-0.2
		c0-0.1-0.1-0.1-0.1-0.1c0,0-0.1,0-0.1,0c0,0-0.1,0-0.2,0H4v0.8h0.1c0.1,0,0.1,0,0.2,0c0.1,0,0.1,0,0.1-0.1c0.1,0,0.1-0.1,0.1-0.1
		C4.6,19.1,4.6,19,4.6,18.9z"/>
	<path class="st0" d="M5.7,19.1H5.1c0,0,0,0.1,0,0.1c0,0,0,0.1,0.1,0.1c0,0,0.1,0,0.1,0.1c0,0,0.1,0,0.1,0c0.1,0,0.1,0,0.2,0
		c0.1,0,0.1,0,0.1-0.1h0v0.1c0,0-0.1,0-0.1,0s-0.1,0-0.1,0c-0.1,0-0.2,0-0.3-0.1C5,19.3,5,19.2,5,19.1c0-0.1,0-0.2,0.1-0.3
		c0.1-0.1,0.2-0.1,0.3-0.1c0.1,0,0.2,0,0.2,0.1C5.7,18.8,5.7,18.9,5.7,19.1L5.7,19.1z M5.6,19c0-0.1,0-0.1-0.1-0.2
		c0,0-0.1-0.1-0.2-0.1c-0.1,0-0.1,0-0.2,0.1c0,0-0.1,0.1-0.1,0.2H5.6z"/>
	<path class="st0" d="M6.5,19.2c0,0.1,0,0.1-0.1,0.2c-0.1,0-0.1,0.1-0.2,0.1c-0.1,0-0.1,0-0.2,0c0,0-0.1,0-0.1,0v-0.1h0
		c0,0,0.1,0.1,0.1,0.1c0.1,0,0.1,0,0.1,0c0.1,0,0.1,0,0.1,0c0,0,0,0,0-0.1c0,0,0-0.1,0-0.1c0,0-0.1,0-0.1,0c0,0,0,0-0.1,0
		c0,0-0.1,0-0.1,0c-0.1,0-0.1,0-0.1-0.1c0,0,0-0.1,0-0.1c0,0,0-0.1,0-0.1c0,0,0-0.1,0.1-0.1c0,0,0.1,0,0.1-0.1c0,0,0.1,0,0.1,0
		c0,0,0.1,0,0.1,0c0,0,0.1,0,0.1,0v0.1h0c0,0-0.1,0-0.1-0.1c0,0-0.1,0-0.1,0c0,0-0.1,0-0.1,0c0,0-0.1,0-0.1,0.1c0,0,0,0.1,0,0.1
		c0,0,0.1,0,0.1,0c0,0,0.1,0,0.1,0c0,0,0.1,0,0.1,0c0.1,0,0.1,0,0.1,0.1C6.5,19.1,6.5,19.2,6.5,19.2z"/>
	<path class="st0" d="M7.4,19.5H7.3v-0.1c0,0,0,0,0,0c0,0,0,0-0.1,0c0,0,0,0-0.1,0c0,0-0.1,0-0.1,0c-0.1,0-0.1,0-0.2-0.1
		c0,0-0.1-0.1-0.1-0.2c0-0.1,0-0.1,0-0.1c0,0,0.1-0.1,0.1-0.1c0,0,0.1,0,0.2,0c0.1,0,0.1,0,0.2,0v0c0,0,0-0.1,0-0.1c0,0,0,0,0,0
		c0,0,0,0-0.1,0c0,0-0.1,0-0.1,0c0,0-0.1,0-0.1,0c0,0-0.1,0-0.1,0h0v-0.1c0,0,0.1,0,0.1,0c0,0,0.1,0,0.1,0c0.1,0,0.1,0,0.1,0
		c0,0,0.1,0,0.1,0c0,0,0.1,0,0.1,0.1c0,0,0,0.1,0,0.1V19.5z M7.3,19.3V19c0,0-0.1,0-0.1,0c-0.1,0-0.1,0-0.1,0c0,0-0.1,0-0.1,0.1
		c0,0,0,0.1,0,0.1c0,0,0,0.1,0,0.1c0,0,0.1,0,0.1,0c0,0,0.1,0,0.1,0C7.2,19.3,7.2,19.3,7.3,19.3z"/>
	<path class="st0" d="M8.2,18.8L8.2,18.8C8.2,18.8,8.2,18.8,8.2,18.8c-0.1,0-0.1,0-0.1,0c0,0-0.1,0-0.1,0c0,0-0.1,0-0.1,0.1v0.6H7.7
		v-0.8h0.1v0.1c0.1,0,0.1-0.1,0.1-0.1c0,0,0.1,0,0.1,0c0,0,0,0,0.1,0c0,0,0,0,0,0V18.8z"/>
	<path class="st0" d="M8.9,18.8L8.9,18.8C8.9,18.8,8.9,18.8,8.9,18.8c-0.1,0-0.1,0-0.1,0c0,0-0.1,0-0.1,0c0,0-0.1,0-0.1,0.1v0.6H8.4
		v-0.8h0.1v0.1c0.1,0,0.1-0.1,0.1-0.1c0,0,0.1,0,0.1,0c0,0,0,0,0.1,0c0,0,0,0,0,0V18.8z"/>
	<path class="st0" d="M9.8,19.1c0,0.1,0,0.2-0.1,0.3c-0.1,0.1-0.2,0.1-0.3,0.1c-0.1,0-0.2,0-0.3-0.1C9.1,19.3,9,19.2,9,19.1
		c0-0.1,0-0.2,0.1-0.3c0.1-0.1,0.2-0.1,0.3-0.1c0.1,0,0.2,0,0.3,0.1C9.7,18.8,9.8,18.9,9.8,19.1z M9.6,19.1c0-0.1,0-0.2-0.1-0.2
		c0,0-0.1-0.1-0.2-0.1c-0.1,0-0.1,0-0.2,0.1c0,0-0.1,0.1-0.1,0.2c0,0.1,0,0.2,0.1,0.2c0,0.1,0.1,0.1,0.2,0.1c0.1,0,0.1,0,0.2-0.1
		C9.6,19.2,9.6,19.2,9.6,19.1z"/>
	<path class="st0" d="M10.2,19.5h-0.1v-1.1h0.1V19.5z"/>
	<path class="st0" d="M10.7,19.5h-0.1v-1.1h0.1V19.5z"/>
	<path class="st0" d="M11.7,19.1c0,0.1,0,0.2-0.1,0.3c-0.1,0.1-0.2,0.1-0.3,0.1c-0.1,0-0.2,0-0.3-0.1c-0.1-0.1-0.1-0.2-0.1-0.3
		c0-0.1,0-0.2,0.1-0.3c0.1-0.1,0.2-0.1,0.3-0.1c0.1,0,0.2,0,0.3,0.1C11.6,18.8,11.7,18.9,11.7,19.1z M11.5,19.1c0-0.1,0-0.2-0.1-0.2
		c0,0-0.1-0.1-0.2-0.1c-0.1,0-0.1,0-0.2,0.1c0,0-0.1,0.1-0.1,0.2c0,0.1,0,0.2,0.1,0.2c0,0.1,0.1,0.1,0.2,0.1c0.1,0,0.1,0,0.2-0.1
		C11.5,19.2,11.5,19.2,11.5,19.1z"/>
	<path class="st0" d="M13.8,18.4l-0.3,1.1h-0.2l-0.2-0.9l-0.2,0.9h-0.2l-0.3-1.1h0.1l0.2,0.9l0.2-0.9h0.1l0.2,0.9l0.2-0.9H13.8z"/>
	<path class="st0" d="M14.6,19.1H14c0,0,0,0.1,0,0.1c0,0,0,0.1,0.1,0.1c0,0,0.1,0,0.1,0.1c0,0,0.1,0,0.1,0c0.1,0,0.1,0,0.2,0
		c0.1,0,0.1,0,0.1-0.1h0v0.1c0,0-0.1,0-0.1,0s-0.1,0-0.1,0c-0.1,0-0.2,0-0.3-0.1c-0.1-0.1-0.1-0.2-0.1-0.3c0-0.1,0-0.2,0.1-0.3
		c0.1-0.1,0.2-0.1,0.3-0.1c0.1,0,0.2,0,0.2,0.1C14.6,18.8,14.6,18.9,14.6,19.1L14.6,19.1z M14.5,19c0-0.1,0-0.1-0.1-0.2
		c0,0-0.1-0.1-0.2-0.1c-0.1,0-0.1,0-0.2,0.1c0,0-0.1,0.1-0.1,0.2H14.5z"/>
	<path class="st0" d="M15.6,19.1c0,0.1,0,0.1,0,0.2c0,0.1,0,0.1-0.1,0.1c0,0-0.1,0.1-0.1,0.1c0,0-0.1,0-0.1,0c0,0-0.1,0-0.1,0
		c0,0-0.1,0-0.1,0l0,0h-0.1v-1.1H15v0.4c0,0,0.1-0.1,0.1-0.1c0,0,0.1,0,0.1,0c0.1,0,0.2,0,0.2,0.1C15.6,18.8,15.6,18.9,15.6,19.1z
		 M15.4,19.1c0-0.1,0-0.2,0-0.2s-0.1-0.1-0.2-0.1c0,0-0.1,0-0.1,0c0,0-0.1,0-0.1,0.1v0.5c0,0,0.1,0,0.1,0c0,0,0.1,0,0.1,0
		c0.1,0,0.1,0,0.2-0.1C15.4,19.2,15.4,19.2,15.4,19.1z"/>
	<path class="st0" d="M17.1,18.7l-0.5,1.1h-0.1l0.1-0.3l-0.3-0.8h0.1l0.2,0.6l0.2-0.6H17.1z"/>
	<path class="st0" d="M18.9,19.5h-0.1v-0.9l-0.3,0.6h-0.1l-0.3-0.6v0.9H18v-1.1h0.2l0.3,0.6l0.3-0.6h0.2V19.5z"/>
	<path class="st0" d="M19.9,19.5h-0.1v-0.1c0,0,0,0,0,0c0,0,0,0-0.1,0c0,0,0,0-0.1,0c0,0-0.1,0-0.1,0c-0.1,0-0.1,0-0.2-0.1
		c0,0-0.1-0.1-0.1-0.2c0-0.1,0-0.1,0-0.1c0,0,0.1-0.1,0.1-0.1c0,0,0.1,0,0.2,0c0.1,0,0.1,0,0.2,0v0c0,0,0-0.1,0-0.1c0,0,0,0,0,0
		c0,0,0,0-0.1,0c0,0-0.1,0-0.1,0c0,0-0.1,0-0.1,0c0,0-0.1,0-0.1,0h0v-0.1c0,0,0.1,0,0.1,0c0,0,0.1,0,0.1,0c0.1,0,0.1,0,0.1,0
		c0,0,0.1,0,0.1,0c0,0,0.1,0,0.1,0.1c0,0,0,0.1,0,0.1V19.5z M19.7,19.3V19c0,0-0.1,0-0.1,0c-0.1,0-0.1,0-0.1,0c0,0-0.1,0-0.1,0.1
		c0,0,0,0.1,0,0.1c0,0,0,0.1,0,0.1c0,0,0.1,0,0.1,0c0,0,0.1,0,0.1,0C19.7,19.3,19.7,19.3,19.7,19.3z"/>
	<path class="st0" d="M20.7,18.8L20.7,18.8C20.7,18.8,20.6,18.8,20.7,18.8c-0.1,0-0.1,0-0.1,0c0,0-0.1,0-0.1,0c0,0-0.1,0-0.1,0.1
		v0.6h-0.1v-0.8h0.1v0.1c0.1,0,0.1-0.1,0.1-0.1c0,0,0.1,0,0.1,0c0,0,0,0,0.1,0c0,0,0,0,0,0V18.8z"/>
	<path class="st0" d="M21.6,19.5h-0.2l-0.3-0.3L21,19.2v0.3h-0.1v-1.1H21v0.7l0.4-0.4h0.2L21.2,19L21.6,19.5z"/>
	<path class="st0" d="M22.5,19.1h-0.6c0,0,0,0.1,0,0.1c0,0,0,0.1,0.1,0.1c0,0,0.1,0,0.1,0.1c0,0,0.1,0,0.1,0c0.1,0,0.1,0,0.2,0
		c0.1,0,0.1,0,0.1-0.1h0v0.1c0,0-0.1,0-0.1,0c0,0-0.1,0-0.1,0c-0.1,0-0.2,0-0.3-0.1c-0.1-0.1-0.1-0.2-0.1-0.3c0-0.1,0-0.2,0.1-0.3
		c0.1-0.1,0.2-0.1,0.3-0.1c0.1,0,0.2,0,0.2,0.1C22.4,18.8,22.5,18.9,22.5,19.1L22.5,19.1z M22.3,19c0-0.1,0-0.1-0.1-0.2
		c0,0-0.1-0.1-0.2-0.1c-0.1,0-0.1,0-0.2,0.1c0,0-0.1,0.1-0.1,0.2H22.3z"/>
	<path class="st0" d="M23.1,19.4C23.1,19.5,23.1,19.5,23.1,19.4c-0.1,0-0.1,0-0.2,0c-0.1,0-0.1,0-0.2-0.1c0,0-0.1-0.1-0.1-0.2v-0.4
		h-0.1v-0.1h0.1v-0.2h0.1v0.2h0.3v0.1h-0.3v0.4c0,0,0,0.1,0,0.1c0,0,0,0,0,0.1c0,0,0,0,0,0c0,0,0,0,0.1,0c0,0,0,0,0.1,0
		c0,0,0,0,0.1,0h0V19.4z"/>
	<path class="st0" d="M23.5,18.5h-0.1v-0.1h0.1V18.5z M23.5,19.5h-0.1v-0.8h0.1V19.5z"/>
	<path class="st0" d="M24.5,19.5h-0.1V19c0,0,0-0.1,0-0.1c0,0,0-0.1,0-0.1c0,0,0,0-0.1,0c0,0-0.1,0-0.1,0c0,0-0.1,0-0.1,0
		c0,0-0.1,0-0.1,0.1v0.6h-0.1v-0.8H24v0.1c0,0,0.1-0.1,0.1-0.1c0,0,0.1,0,0.1,0c0.1,0,0.2,0,0.2,0.1c0,0.1,0.1,0.1,0.1,0.2V19.5z"/>
	<path class="st0" d="M25.5,19.4c0,0.1,0,0.2-0.1,0.3c-0.1,0.1-0.2,0.1-0.3,0.1c0,0-0.1,0-0.1,0c0,0-0.1,0-0.1,0v-0.1h0
		c0,0,0.1,0,0.1,0c0,0,0.1,0,0.1,0c0,0,0.1,0,0.1,0c0,0,0.1,0,0.1,0c0,0,0,0,0-0.1c0,0,0-0.1,0-0.1v-0.1c0,0-0.1,0.1-0.1,0.1
		c0,0-0.1,0-0.1,0c-0.1,0-0.2,0-0.2-0.1c-0.1-0.1-0.1-0.2-0.1-0.3c0-0.1,0-0.1,0-0.2c0,0,0-0.1,0.1-0.1c0,0,0.1-0.1,0.1-0.1
		c0,0,0.1,0,0.1,0c0,0,0.1,0,0.1,0c0,0,0.1,0,0.1,0l0,0h0.1V19.4z M25.3,19.2v-0.4c0,0-0.1,0-0.1,0c0,0-0.1,0-0.1,0
		c-0.1,0-0.1,0-0.2,0.1c0,0-0.1,0.1-0.1,0.2c0,0.1,0,0.2,0,0.2c0,0,0.1,0.1,0.2,0.1c0,0,0.1,0,0.1,0C25.3,19.3,25.3,19.3,25.3,19.2z
		"/>
	<path class="st0" d="M27.3,18.9c0,0.1,0,0.2-0.1,0.3c0,0.1-0.1,0.1-0.2,0.2c0,0-0.1,0.1-0.2,0.1c-0.1,0-0.1,0-0.2,0h-0.3v-1.1h0.3
		c0.1,0,0.2,0,0.2,0c0.1,0,0.1,0,0.2,0.1c0.1,0,0.1,0.1,0.2,0.2C27.3,18.7,27.3,18.8,27.3,18.9z M27.1,18.9c0-0.1,0-0.2,0-0.2
		c0-0.1-0.1-0.1-0.1-0.1c0,0-0.1,0-0.1,0c0,0-0.1,0-0.2,0h-0.1v0.8h0.1c0.1,0,0.1,0,0.2,0c0.1,0,0.1,0,0.1-0.1
		c0.1,0,0.1-0.1,0.1-0.1C27.1,19.1,27.1,19,27.1,18.9z"/>
	<path class="st0" d="M27.7,18.5h-0.1v-0.1h0.1V18.5z M27.7,19.5h-0.1v-0.8h0.1V19.5z"/>
	<path class="st0" d="M28.7,19.4c0,0.1,0,0.2-0.1,0.3c-0.1,0.1-0.2,0.1-0.3,0.1c0,0-0.1,0-0.1,0s-0.1,0-0.1,0v-0.1h0
		c0,0,0.1,0,0.1,0c0,0,0.1,0,0.1,0c0,0,0.1,0,0.1,0c0,0,0.1,0,0.1,0c0,0,0,0,0-0.1c0,0,0-0.1,0-0.1v-0.1c0,0-0.1,0.1-0.1,0.1
		c0,0-0.1,0-0.1,0c-0.1,0-0.2,0-0.2-0.1C28,19.3,28,19.2,28,19.1c0-0.1,0-0.1,0-0.2c0,0,0-0.1,0.1-0.1c0,0,0.1-0.1,0.1-0.1
		c0,0,0.1,0,0.1,0c0,0,0.1,0,0.1,0c0,0,0.1,0,0.1,0l0,0h0.1V19.4z M28.5,19.2v-0.4c0,0-0.1,0-0.1,0c0,0-0.1,0-0.1,0
		c-0.1,0-0.1,0-0.2,0.1c0,0-0.1,0.1-0.1,0.2c0,0.1,0,0.2,0,0.2c0,0,0.1,0.1,0.2,0.1c0,0,0.1,0,0.1,0C28.5,19.3,28.5,19.3,28.5,19.2z
		"/>
	<path class="st0" d="M29.2,18.5H29v-0.1h0.1V18.5z M29.2,19.5H29v-0.8h0.1V19.5z"/>
	<path class="st0" d="M29.9,19.4C29.9,19.5,29.8,19.5,29.9,19.4c-0.1,0-0.1,0-0.2,0c-0.1,0-0.1,0-0.2-0.1c0,0-0.1-0.1-0.1-0.2v-0.4
		h-0.1v-0.1h0.1v-0.2h0.1v0.2h0.3v0.1h-0.3v0.4c0,0,0,0.1,0,0.1c0,0,0,0,0,0.1c0,0,0,0,0,0c0,0,0,0,0.1,0c0,0,0,0,0.1,0
		c0,0,0,0,0.1,0h0V19.4z"/>
	<path class="st0" d="M30.7,19.5h-0.1v-0.1c0,0,0,0,0,0c0,0,0,0-0.1,0c0,0,0,0-0.1,0c0,0-0.1,0-0.1,0c-0.1,0-0.1,0-0.2-0.1
		c0,0-0.1-0.1-0.1-0.2c0-0.1,0-0.1,0-0.1c0,0,0.1-0.1,0.1-0.1c0,0,0.1,0,0.2,0c0.1,0,0.1,0,0.2,0v0c0,0,0-0.1,0-0.1c0,0,0,0,0,0
		c0,0,0,0-0.1,0c0,0-0.1,0-0.1,0c0,0-0.1,0-0.1,0c0,0-0.1,0-0.1,0h0v-0.1c0,0,0.1,0,0.1,0c0,0,0.1,0,0.1,0c0.1,0,0.1,0,0.1,0
		c0,0,0.1,0,0.1,0c0,0,0.1,0,0.1,0.1c0,0,0,0.1,0,0.1V19.5z M30.6,19.3V19c0,0-0.1,0-0.1,0c-0.1,0-0.1,0-0.1,0c0,0-0.1,0-0.1,0.1
		c0,0,0,0.1,0,0.1c0,0,0,0.1,0,0.1c0,0,0.1,0,0.1,0c0,0,0.1,0,0.1,0C30.5,19.3,30.6,19.3,30.6,19.3z"/>
	<path class="st0" d="M31.2,19.5h-0.1v-1.1h0.1V19.5z"/>
</g>
<g>
	<path class="st0" d="M20.6,4.9c0.3,0,0.6,0,0.9,0c0.4,0.1,0.7,0.4,0.7,0.9c0,1.5,0,3,0,4.5c0,0.5-0.4,0.9-0.9,0.9c-1.5,0-3,0-4.5,0
		c-0.5,0-0.9-0.4-0.9-0.9c0-0.2,0-0.4,0-0.6c0-0.2,0.1-0.2,0.2-0.2c1.2,0,2.4,0,3.5,0c0.6,0,0.9-0.3,0.9-0.9c0-1.2,0-2.3,0-3.5
		C20.6,5.1,20.6,5,20.6,4.9z"/>
	<path class="st0" d="M19.1,3.5c-0.1,0-0.2,0-0.3,0c-1.1,0-2.3,0-3.4,0c-0.6,0-0.9,0.3-0.9,0.9c0,1.1,0,2.3,0,3.4c0,0.1,0,0.2,0,0.3
		c-0.3,0-0.7,0-1,0c-0.4-0.1-0.7-0.4-0.7-0.8c0-1.5,0-3.1,0-4.6c0-0.5,0.4-0.8,0.9-0.9c1.5,0,3,0,4.5,0c0.5,0,0.9,0.4,0.9,0.9
		C19.1,3,19.1,3.2,19.1,3.5z"/>
	<g>
		<path class="st0" d="M17.9,7.7c0.1,0,0.2-0.1,0.3-0.1c0,0,0,0,0,0c0.1,0.1,0.1,0.1,0,0.2c-0.9,0.4-1.9-0.1-2.1-1
			c-0.2-0.8,0.4-1.6,1.2-1.7c0.8-0.2,1.6,0.4,1.7,1.2c0,0.3,0,0.5-0.1,0.8c0,0,0,0,0,0.1c0,0-0.1,0-0.1,0c0,0,0-0.1,0-0.1
			c0-0.1,0-0.2,0.1-0.3c0,0,0-0.1-0.1-0.1c-0.2,0-0.3,0-0.5,0c0,0-0.1,0-0.1,0.1c0,0.1,0,0.1,0,0.2c0,0-0.1,0-0.1,0c0,0,0,0,0,0
			c0,0,0-0.1,0-0.1c0,0,0,0,0,0c-0.1,0-0.3,0-0.4,0c0,0,0,0,0,0c0,0.1,0,0.2,0,0.4c0,0,0,0.1,0.1,0.1c0.1,0,0.2,0,0.3,0
			c0,0,0,0,0.1,0c0,0.1,0.1,0.2,0.1,0.2c0,0,0,0.1,0,0.1C18,7.4,17.9,7.5,17.9,7.7C17.9,7.6,17.9,7.6,17.9,7.7
			C17.9,7.7,17.9,7.7,17.9,7.7z M16.5,6.5C16.5,6.5,16.5,6.5,16.5,6.5c-0.1,0-0.2,0-0.3,0c0,0-0.1,0,0,0c0,0.2,0.1,0.4,0.2,0.6
			c0,0,0,0,0.1,0c0.1,0,0.2-0.1,0.4-0.1c0,0,0.1,0,0-0.1c0-0.1,0-0.3,0-0.4c0,0,0-0.1-0.1-0.1C16.6,6.5,16.5,6.5,16.5,6.5z
			 M18.5,6.3c0.1,0,0.2,0,0.3,0c0,0,0.1,0,0.1-0.1c0-0.2-0.1-0.4-0.2-0.6c0,0,0,0-0.1,0c-0.1,0-0.3,0.1-0.4,0.1c0,0,0,0,0,0.1
			c0,0.1,0,0.3,0,0.4c0,0,0,0.1,0.1,0C18.3,6.3,18.4,6.3,18.5,6.3z M16.7,6.3c0-0.2,0-0.3,0.1-0.5c0,0,0,0-0.1-0.1
			c-0.1,0-0.2-0.1-0.4-0.1c0,0-0.1,0-0.1,0c-0.1,0.2-0.2,0.4-0.2,0.6c0,0,0,0,0,0C16.4,6.3,16.6,6.3,16.7,6.3z M17.4,6.7
			c0-0.1,0-0.1,0-0.2c0,0,0-0.1-0.1-0.1c-0.1,0-0.3,0-0.4,0c0,0-0.1,0-0.1,0.1c0,0.1,0,0.3,0,0.4c0,0,0,0,0.1,0c0.1,0,0.3,0,0.4,0
			c0,0,0.1,0,0.1-0.1C17.4,6.8,17.4,6.8,17.4,6.7z M16.9,6.3c0.2,0,0.3,0,0.5,0c0,0,0,0,0,0c0-0.1,0-0.2,0-0.4c0,0,0-0.1-0.1-0.1
			c-0.1,0-0.3,0-0.4,0c0,0,0,0-0.1,0c0,0,0,0.1,0,0.1C16.9,6.1,16.9,6.2,16.9,6.3z M18.1,6.3c0-0.2,0-0.3-0.1-0.4
			c0-0.1,0-0.1-0.1-0.1c-0.1,0-0.2,0-0.4,0c0,0,0,0,0,0.1c0,0.1,0,0.2,0,0.3c0,0,0,0.1,0,0.1C17.7,6.3,17.9,6.3,18.1,6.3z M17.4,5.1
			c-0.2,0-0.4,0.4-0.4,0.6c0,0,0,0,0,0c0.1,0,0.2,0,0.3,0c0.1,0,0.1,0,0.1-0.1C17.4,5.5,17.4,5.3,17.4,5.1
			C17.4,5.1,17.4,5.1,17.4,5.1z M17.4,7.7C17.4,7.7,17.4,7.7,17.4,7.7c0-0.2,0-0.4,0-0.6c0,0,0-0.1-0.1,0c-0.1,0-0.2,0-0.4,0
			c0,0,0,0,0,0c0.1,0.2,0.1,0.4,0.3,0.5C17.3,7.7,17.4,7.7,17.4,7.7z M18,5.7c0-0.3-0.2-0.6-0.4-0.6c0,0,0,0,0,0c0,0.2,0,0.4,0,0.6
			c0,0,0,0,0,0C17.7,5.7,17.8,5.7,18,5.7z M17.6,7.7c0.2,0,0.4-0.4,0.4-0.6c-0.1,0-0.3,0-0.4,0C17.6,7.3,17.6,7.5,17.6,7.7z
			 M17.1,7.7C17.1,7.6,17.1,7.6,17.1,7.7c-0.1-0.2-0.2-0.3-0.2-0.5c0-0.1,0-0.1-0.1-0.1c0,0,0,0,0,0c-0.1,0-0.2,0.1-0.3,0.1
			C16.5,7.4,16.9,7.7,17.1,7.7z M17.1,5.1c-0.2,0-0.5,0.3-0.7,0.5c0.1,0,0.3,0.1,0.4,0.1c0,0,0,0,0,0c0,0,0-0.1,0.1-0.2
			C17,5.4,17,5.2,17.1,5.1z M18.5,5.6c-0.2-0.2-0.4-0.4-0.7-0.5c0,0,0,0,0,0c0.1,0.2,0.2,0.3,0.2,0.5c0,0,0,0,0,0
			C18.3,5.6,18.4,5.6,18.5,5.6z"/>
		<path class="st0" d="M18.5,7.5c0,0.1-0.1,0.2-0.1,0.3c-0.2-0.4-0.3-0.7-0.5-1.1c0,0,0,0,0,0c0.3,0.2,0.7,0.3,1,0.5c0,0,0,0,0,0
			c-0.1,0-0.2,0.1-0.3,0.1c0.1,0.1,0.3,0.3,0.4,0.4C19,7.8,19,7.8,19,7.8c0,0,0,0-0.1,0C18.8,7.7,18.7,7.6,18.5,7.5
			C18.6,7.5,18.6,7.5,18.5,7.5z"/>
	</g>
</g>
</svg>
